<?xml version="1.0" encoding="UTF-8" standalone="no"?>
<!DOCTYPE svg PUBLIC "-//W3C//DTD SVG 1.1//EN" "http://www.w3.org/Graphics/SVG/1.1/DTD/svg11.dtd">
<svg xmlns="http://www.w3.org/2000/svg" xmlns:xlink="http://www.w3.org/1999/xlink" version="1.1" width="200pt" height="200pt" viewBox="0 0 200 200">
<g enable-background="new">
<path transform="matrix(1,0,0,-1,0,200)" d="M 64.7558 110.611 L 64.7558 148.341 L 100.1 169.067 L 135.187 148.844 L 135.187 110.611 L 168.41 91.8708 L 168.41 49.9897 L 133.426 29.7342 L 100.1 48.7312 L 66.2646 29.7342 L 31.7923 50.7438 L 31.7923 91.2419 Z " fill="#ffffff"/>
<path transform="matrix(1,0,0,-1,0,200)" stroke-width=".2503" stroke-linecap="butt" stroke-miterlimit="10" stroke-linejoin="miter" fill="none" stroke="#060707" d="M 64.7558 110.611 L 64.7558 148.341 L 100.1 169.067 L 135.187 148.844 L 135.187 110.611 L 168.41 91.8708 L 168.41 49.9897 L 133.426 29.7342 L 100.1 48.7312 L 66.2646 29.7342 L 31.7923 50.7438 L 31.7923 91.2419 Z "/>
<path transform="matrix(1,0,0,-1,0,200)" d="M 100.506 109.052 L 67.3777 105.86 L 68.0894 146.687 L 100.506 165.463 Z " fill="#032b91"/>
<path transform="matrix(1,0,0,-1,0,200)" d="M 100.506 109.052 L 133.635 105.86 L 132.922 146.687 L 100.506 165.463 Z " fill="#1488db"/>
<path transform="matrix(1,0,0,-1,0,200)" d="M 116.497 80.2014 L 130.233 110.517 L 165.278 89.5601 L 165.41 52.0991 Z " fill="#032b91"/>
<path transform="matrix(1,0,0,-1,0,200)" d="M 116.497 80.2014 L 97.2254 53.0662 L 132.981 33.3457 L 165.41 52.0991 Z " fill="#1488db"/>
<path transform="matrix(1,0,0,-1,0,200)" d="M 85.1852 79.9188 L 71.7234 110.357 L 36.4902 89.7183 L 36.0198 52.2596 Z " fill="#032b91"/>
<path transform="matrix(1,0,0,-1,0,200)" d="M 85.1852 80.1261 L 104.211 52.8179 L 68.2781 33.4211 L 36.0198 52.4679 Z " fill="#1488db"/>
<path transform="matrix(1,0,0,-1,0,200)" d="M 133.049 71.0686 L 100.266 52.015 L 67.3814 70.8653 L 67.2808 108.768 L 100.065 127.822 L 132.949 108.973 Z " fill="#ffffff"/>
<path transform="matrix(1,0,0,-1,0,200)" d="M 83.9335 108.217 L 83.9335 85.5192 L 90.1912 85.5192 C 90.1912 85.5192 99.2036 85.352 99.2036 91.9441 C 99.1928 94.4065 98.3687 97.9524 94.0295 97.9524 C 94.0295 97.9524 98.035 97.9524 98.035 102.793 C 98.035 102.793 98.2853 108.217 90.0239 108.217 C 81.7625 108.217 90.0239 108.217 90.0239 108.217 Z " fill="#032b91"/>
<path transform="matrix(1,0,0,-1,0,200)" d="M 88.4906 104.201 L 88.4906 99.6071 C 88.4906 99.6071 93.4975 98.7309 93.4975 101.904 C 93.4975 105.077 88.6157 104.201 88.6157 104.201 " fill="#ffffff"/>
<path transform="matrix(1,0,0,-1,0,200)" d="M 88.4906 95.4391 L 88.4906 89.6499 C 88.4906 89.6499 95.0308 88.9301 95.0308 92.5446 C 95.0308 96.1589 88.4906 95.4391 88.4906 95.4391 " fill="#ffffff"/>
<path transform="matrix(1,0,0,-1,0,200)" d="M 119.627 108.217 L 114.495 108.217 L 107.235 98.5725 L 107.235 108.217 L 102.854 108.217 L 102.854 85.5192 L 107.235 85.5192 L 107.235 95.6672 L 114.496 85.6191 L 119.627 85.5192 L 110.88 97.0969 Z " fill="#032b91"/>
<path transform="matrix(1,0,0,-1,0,200)" d="M 84.8918 80.7626 L 79.791 80.7626 L 79.791 79.198 L 81.5122 79.198 L 81.5122 72.376 L 83.202 72.376 L 83.202 79.198 L 84.8918 79.198 Z " fill="#1488db"/>
<path transform="matrix(1,0,0,-1,0,200)" d="M 87.5831 75.4262 C 87.5831 75.4262 91.7763 74.9 91.7763 78.1097 C 91.7763 80.309 89.6484 80.7619 87.5831 80.7619 M 87.5831 76.9929 L 87.5831 79.2127 C 87.5831 79.2127 90.0239 79.5727 90.0239 78.1097 C 90.0239 76.8412 88.0965 76.9441 87.5831 76.9929 M 87.5831 80.7619 L 85.8932 80.7619 L 85.8932 72.3753 L 87.5831 72.3753 L 87.5831 75.4262 C 87.5831 75.4262 91.7763 74.9 91.7763 78.1097 " fill="#1488db"/>
<path transform="matrix(1,0,0,-1,0,200)" d="M 92.9863 72.376 L 94.447299 72.376 L 94.447299 73.836 L 92.9863 73.836 Z " fill="#1488db" fill-rule="evenodd"/>
<path transform="matrix(1,0,0,-1,0,200)" d="M 101.457 80.7626 L 101.457 77.4661 L 98.3274 77.4661 L 98.3274 80.7626 L 96.5329 80.7626 L 96.5329 72.376 L 98.3274 72.376 L 98.3274 75.6716 L 101.457 75.6716 L 101.457 72.376 L 103.251 72.376 L 103.251 80.7626 Z " fill="#1488db"/>
<path transform="matrix(1,0,0,-1,0,200)" d="M 109.394 73.975 C 107.712 73.975 106.347 75.1924 106.347 76.6937 C 106.347 78.1948 107.712 79.4123 109.394 79.4123 C 110.345 79.4123 111.194 79.022 111.752 78.4129 L 113.83 78.4129 C 113.085 79.9412 111.381 81.0112 109.394 81.0112 C 106.722 81.0112 104.556 79.0778 104.556 76.6937 C 104.556 74.3085 106.722 72.376 109.394 72.376 C 111.345 72.376 113.023 73.4087 113.787 74.8943 L 111.673 74.8943 C 111.115 74.332 110.302 73.975 109.394 73.975 " fill="#1488db"/>
<path transform="matrix(1,0,0,-1,0,200)" d="M 124.572 80.7626 L 122.173 80.7626 L 119.627 74.3162 L 117.229 80.7626 L 114.87 80.7626 L 114.87 72.376 L 116.623 72.376 L 116.623 78.4049 L 118.981 72.376 L 120.337 72.376 L 122.819 78.5095 L 122.819 72.376 L 124.572 72.376 Z " fill="#1488db"/>
<path transform="matrix(1,0,0,-1,0,200)" d="M 87.5831 79.2127 L 87.5831 76.9929 C 87.5831 76.9929 90.0239 76.6662 90.0239 78.1097 C 90.0239 79.5539 87.5831 79.2127 87.5831 79.2127 " fill="#ffffff"/>
</g>
</svg>
